<svg width="32" height="32" viewBox="0 0 32 32" fill="none" xmlns="http://www.w3.org/2000/svg">
<path d="M19.24 25.0935C18.9866 25.0935 18.7333 25.0002 18.5333 24.8002C18.1466 24.4135 18.1466 23.7735 18.5333 23.3868L25.92 16.0002L18.5333 8.61349C18.1466 8.22682 18.1466 7.58682 18.5333 7.20016C18.92 6.81349 19.56 6.81349 19.9466 7.20016L28.04 15.2935C28.4266 15.6802 28.4266 16.3202 28.04 16.7068L19.9466 24.8002C19.7466 25.0002 19.4933 25.0935 19.24 25.0935Z" fill="#0D6EFD"/>
<path d="M27.1066 17H4.66663C4.11996 17 3.66663 16.5467 3.66663 16C3.66663 15.4533 4.11996 15 4.66663 15H27.1066C27.6533 15 28.1066 15.4533 28.1066 16C28.1066 16.5467 27.6533 17 27.1066 17Z" fill="#0D6EFD"/>
</svg>