<svg width="18" height="18" viewBox="0 0 18 18" fill="none" xmlns="http://www.w3.org/2000/svg">
<path d="M6.08392 14.0101H5.72605C2.86311 14.0101 1.43164 13.2944 1.43164 9.71573V6.13706C1.43164 3.27412 2.86311 1.84265 5.72605 1.84265H11.4519C14.3149 1.84265 15.7463 3.27412 15.7463 6.13706V9.71573C15.7463 12.5787 14.3149 14.0101 11.4519 14.0101H11.0941C10.8722 14.0101 10.6575 14.1175 10.5215 14.2964L9.44787 15.7279C8.97549 16.3578 8.20249 16.3578 7.73011 15.7279L6.65651 14.2964C6.54199 14.139 6.27717 14.0101 6.08392 14.0101Z" stroke="#5E9EFE" stroke-width="1.0736" stroke-miterlimit="10" stroke-linecap="round" stroke-linejoin="round"/>
<path d="M11.4496 8.28426H11.4561" stroke="#5E9EFE" stroke-width="1.43147" stroke-linecap="round" stroke-linejoin="round"/>
<path d="M8.58636 8.28426H8.59279" stroke="#5E9EFE" stroke-width="1.43147" stroke-linecap="round" stroke-linejoin="round"/>
<path d="M5.72112 8.28426H5.72755" stroke="#5E9EFE" stroke-width="1.43147" stroke-linecap="round" stroke-linejoin="round"/>
</svg>
