<svg width="42" height="50" viewBox="0 0 42 50" fill="none" xmlns="http://www.w3.org/2000/svg">
<path d="M25.6667 16.6663V21.333H18.6667L12.39 18.5797L9.33333 27.7497V49.333H0V25.9997L3.68667 15.1963C3.89421 14.5776 4.22902 14.0093 4.66953 13.5278C5.11005 13.0463 5.64652 12.6625 6.24439 12.4009C6.84225 12.1393 7.48827 12.0059 8.14085 12.0091C8.79342 12.0123 9.43809 12.1522 10.0333 12.4197L19.7167 16.6897L25.6667 16.6663ZM11.6667 0.333008C9.1 0.333008 7 2.43301 7 4.99967C7 7.56634 9.1 9.66634 11.6667 9.66634C14.2333 9.66634 16.3333 7.56634 16.3333 4.99967C16.3333 2.43301 14.2333 0.333008 11.6667 0.333008ZM14 42.333H42V37.6663H14V42.333ZM38.5 35.333C40.4367 35.333 42 33.7697 42 31.833C42 29.8963 40.4367 28.333 38.5 28.333C36.5633 28.333 35 29.8963 35 31.833C35 33.7697 36.5633 35.333 38.5 35.333ZM23.3333 25.9997C23.3333 24.7163 22.2833 23.6663 21 23.6663H14V28.333H18.6667V30.6663C18.6667 33.233 20.7667 35.333 23.3333 35.333H28C30.5667 35.333 32.6667 33.233 32.6667 30.6663V23.6663H28V28.333H23.3333V25.9997Z" fill="#D43D84"/>
</svg>