<svg width="48" height="43" viewBox="0 0 48 43" fill="none" xmlns="http://www.w3.org/2000/svg">
<path d="M30.417 28C32.671 28 34.5003 29.8293 34.5003 32.0833L34.498 34.328C34.771 39.438 30.9723 42.021 24.1567 42.021C17.3667 42.021 13.5003 39.4777 13.5003 34.4167V32.0833C13.5003 29.8293 15.3297 28 17.5837 28H30.417ZM4.75033 16.3333H14.961C14.5539 17.9176 14.5695 19.581 15.0064 21.1574C15.4433 22.7338 16.2861 24.1679 17.4507 25.3167L17.8287 25.669L17.5837 25.6667C16.1833 25.6662 14.8211 26.1238 13.7051 26.9698C12.5891 27.8157 11.7805 29.0035 11.4027 30.352L11.3233 30.3543C4.53332 30.3543 0.666992 27.811 0.666992 22.75V20.4167C0.666992 18.1627 2.49633 16.3333 4.75033 16.3333ZM43.2503 16.3333C45.5043 16.3333 47.3337 18.1627 47.3337 20.4167L47.3313 22.6613C47.6043 27.7713 43.8057 30.3543 36.99 30.3543L36.5957 30.3497C36.2369 29.0787 35.4956 27.949 34.4724 27.1141C33.4492 26.2792 32.1937 25.7795 30.8767 25.683L30.417 25.6667L30.172 25.669C31.4673 24.5313 32.4212 23.0564 32.9275 21.4084C33.4338 19.7605 33.4727 18.0044 33.0397 16.3357L43.2503 16.3333ZM24.0003 11.6667C24.9196 11.6667 25.8298 11.8477 26.6791 12.1995C27.5284 12.5513 28.3001 13.0669 28.9501 13.7169C29.6001 14.3669 30.1157 15.1386 30.4675 15.9879C30.8193 16.8372 31.0003 17.7474 31.0003 18.6667C31.0003 19.5859 30.8193 20.4962 30.4675 21.3455C30.1157 22.1947 29.6001 22.9664 28.9501 23.6164C28.3001 24.2664 27.5284 24.782 26.6791 25.1338C25.8298 25.4856 24.9196 25.6667 24.0003 25.6667C22.1438 25.6667 20.3633 24.9292 19.0506 23.6164C17.7378 22.3037 17.0003 20.5232 17.0003 18.6667C17.0003 16.8102 17.7378 15.0297 19.0506 13.7169C20.3633 12.4042 22.1438 11.6667 24.0003 11.6667ZM11.167 0C13.0235 0 14.804 0.737498 16.1167 2.05025C17.4295 3.36301 18.167 5.14349 18.167 7C18.167 8.85652 17.4295 10.637 16.1167 11.9497C14.804 13.2625 13.0235 14 11.167 14C9.31048 14 7.53 13.2625 6.21724 11.9497C4.90449 10.637 4.16699 8.85652 4.16699 7C4.16699 5.14349 4.90449 3.36301 6.21724 2.05025C7.53 0.737498 9.31048 0 11.167 0ZM36.8337 0C38.6902 0 40.4706 0.737498 41.7834 2.05025C43.0962 3.36301 43.8337 5.14349 43.8337 7C43.8337 8.85652 43.0962 10.637 41.7834 11.9497C40.4706 13.2625 38.6902 14 36.8337 14C34.9771 14 33.1967 13.2625 31.8839 11.9497C30.5712 10.637 29.8337 8.85652 29.8337 7C29.8337 5.14349 30.5712 3.36301 31.8839 2.05025C33.1967 0.737498 34.9771 0 36.8337 0Z" fill="#D43D84"/>
</svg>
