<svg width="42" height="42" viewBox="0 0 42 42" fill="none" xmlns="http://www.w3.org/2000/svg">
<path d="M28 0H4.66667C3.42899 0 2.242 0.491665 1.36683 1.36683C0.491665 2.242 0 3.42899 0 4.66667V37.3333C0 38.571 0.491665 39.758 1.36683 40.6332C2.242 41.5083 3.42899 42 4.66667 42H37.3333C38.571 42 39.758 41.5083 40.6332 40.6332C41.5083 39.758 42 38.571 42 37.3333V14L28 0ZM37.3333 37.3333H4.66667V4.66667H25.6667V16.3333H37.3333M32.6667 25.6667H9.33333V21H32.6667M25.6667 32.6667H9.33333V28H25.6667" fill="#D43D84"/>
</svg>