<svg width="18" height="18" viewBox="0 0 18 18" fill="none" xmlns="http://www.w3.org/2000/svg">
<path d="M5.35352 13.1338L7.57229 14.8516C7.85859 15.1379 8.50275 15.281 8.93219 15.281H11.652C12.5109 15.281 13.4413 14.6368 13.656 13.778L15.3738 8.5531C15.7317 7.55108 15.0875 6.69219 14.0139 6.69219H11.151C10.7215 6.69219 10.3637 6.33433 10.4352 5.83331L10.7931 3.54296C10.9362 2.8988 10.5068 2.18306 9.86264 1.96834C9.29006 1.75362 8.57432 2.03992 8.28803 2.46936L5.35352 6.83534" stroke="#141010" stroke-width="1.0736" stroke-miterlimit="10"/>
<path d="M1.70312 13.1337V6.11954C1.70312 5.11751 2.13257 4.75964 3.13459 4.75964H3.85033C4.85236 4.75964 5.2818 5.11751 5.2818 6.11954V13.1337C5.2818 14.1358 4.85236 14.4936 3.85033 14.4936H3.13459C2.13257 14.4936 1.70312 14.1358 1.70312 13.1337Z" stroke="#141010" stroke-width="1.0736" stroke-linecap="round" stroke-linejoin="round"/>
</svg>
