<svg width="20" height="20" viewBox="0 0 20 20" fill="none" xmlns="http://www.w3.org/2000/svg">
<path d="M8.33398 15.8333C8.33398 16.75 9.08398 17.5 10.0007 17.5C10.9173 17.5 11.6673 16.75 11.6673 15.8333C11.6673 14.9167 10.9173 14.1667 10.0007 14.1667C9.08398 14.1667 8.33398 14.9167 8.33398 15.8333Z" stroke="#141010" stroke-width="1.0736"/>
<path d="M8.33398 4.16665C8.33398 5.08331 9.08398 5.83331 10.0007 5.83331C10.9173 5.83331 11.6673 5.08331 11.6673 4.16665C11.6673 3.24998 10.9173 2.49998 10.0007 2.49998C9.08398 2.49998 8.33398 3.24998 8.33398 4.16665Z" stroke="#141010" stroke-width="1.0736"/>
<path d="M8.33398 9.99996C8.33398 10.9166 9.08398 11.6666 10.0007 11.6666C10.9173 11.6666 11.6673 10.9166 11.6673 9.99996C11.6673 9.08329 10.9173 8.33329 10.0007 8.33329C9.08398 8.33329 8.33398 9.08329 8.33398 9.99996Z" stroke="#141010" stroke-width="1.0736"/>
</svg>