<svg width="24" height="24" viewBox="0 0 24 24" fill="none" xmlns="http://www.w3.org/2000/svg">
<path d="M5 10.0001C3.9 10.0001 3 10.9001 3 12.0001C3 13.1001 3.9 14.0001 5 14.0001C6.1 14.0001 7 13.1001 7 12.0001C7 10.9001 6.1 10.0001 5 10.0001Z" stroke="#292D32" stroke-width="1.0736"/>
<path d="M19 10.0001C17.9 10.0001 17 10.9001 17 12.0001C17 13.1001 17.9 14.0001 19 14.0001C20.1 14.0001 21 13.1001 21 12.0001C21 10.9001 20.1 10.0001 19 10.0001Z" stroke="#292D32" stroke-width="1.0736"/>
<path d="M12 10.0001C10.9 10.0001 10 10.9001 10 12.0001C10 13.1001 10.9 14.0001 12 14.0001C13.1 14.0001 14 13.1001 14 12.0001C14 10.9001 13.1 10.0001 12 10.0001Z" stroke="#292D32" stroke-width="1.0736"/>
</svg>
