<svg width="16" height="16" viewBox="0 0 16 16" fill="none" xmlns="http://www.w3.org/2000/svg">
<path d="M8.01437 1.94C5.8077 1.94 4.01437 3.73334 4.01437 5.94V7.86667C4.01437 8.27334 3.84103 8.89334 3.63437 9.24L2.8677 10.5133C2.39437 11.3 2.72104 12.1733 3.5877 12.4667C6.46103 13.4267 9.56103 13.4267 12.4344 12.4667C13.241 12.2 13.5944 11.2467 13.1544 10.5133L12.3877 9.24C12.1877 8.89334 12.0144 8.27334 12.0144 7.86667V5.94C12.0144 3.74 10.2144 1.94 8.01437 1.94Z" stroke="#4F4F4F" stroke-opacity="0.9" stroke-width="1.0736" stroke-miterlimit="10" stroke-linecap="round"/>
<path d="M9.24596 2.13333C9.0393 2.07333 8.82596 2.02667 8.60596 2C7.96596 1.92 7.35263 1.96667 6.7793 2.13333C6.97263 1.64 7.45263 1.29333 8.01263 1.29333C8.57263 1.29333 9.05263 1.64 9.24596 2.13333Z" stroke="#4F4F4F" stroke-opacity="0.9" stroke-width="1.0736" stroke-miterlimit="10" stroke-linecap="round" stroke-linejoin="round"/>
<path d="M10.0137 12.7067C10.0137 13.8067 9.11367 14.7067 8.01367 14.7067C7.46701 14.7067 6.96034 14.4801 6.60034 14.1201C6.24034 13.7601 6.01367 13.2534 6.01367 12.7067" stroke="#4F4F4F" stroke-opacity="0.9" stroke-width="1.0736" stroke-miterlimit="10"/>
</svg>
