<svg width="16" height="16" viewBox="0 0 16 16" fill="none" xmlns="http://www.w3.org/2000/svg">
<path d="M8.10573 7.24683C8.03906 7.24016 7.95906 7.24016 7.88573 7.24683C6.29906 7.1935 5.03906 5.8935 5.03906 4.2935C5.03906 2.66016 6.35906 1.3335 7.99906 1.3335C9.6324 1.3335 10.9591 2.66016 10.9591 4.2935C10.9524 5.8935 9.6924 7.1935 8.10573 7.24683Z" stroke="#4F4F4F" stroke-opacity="0.9" stroke-width="1.0736" stroke-linecap="round" stroke-linejoin="round"/>
<path d="M4.7725 9.70681C3.15917 10.7868 3.15917 12.5468 4.7725 13.6201C6.60583 14.8468 9.6125 14.8468 11.4458 13.6201C13.0592 12.5401 13.0592 10.7801 11.4458 9.70681C9.61917 8.48681 6.6125 8.48681 4.7725 9.70681Z" stroke="#4F4F4F" stroke-opacity="0.9" stroke-width="1.0736" stroke-linecap="round" stroke-linejoin="round"/>
</svg>
