<svg width="16" height="16" viewBox="0 0 16 16" fill="none" xmlns="http://www.w3.org/2000/svg">
<path d="M10.6673 5.99331V13.5666C10.6673 14.5333 9.97398 14.94 9.12732 14.4733L6.50732 13.0133C6.22732 12.86 5.77398 12.86 5.49398 13.0133L2.87398 14.4733C2.02732 14.94 1.33398 14.5333 1.33398 13.5666V5.99331C1.33398 4.85331 2.26731 3.91998 3.40731 3.91998H8.59399C9.73399 3.91998 10.6673 4.85331 10.6673 5.99331Z" stroke="#4F4F4F" stroke-opacity="0.9" stroke-width="1.0736" stroke-linecap="round" stroke-linejoin="round"/>
<path d="M14.6673 3.40673V10.9801C14.6673 11.9467 13.974 12.3534 13.1273 11.8867L10.6673 10.5134V5.9934C10.6673 4.8534 9.73399 3.92007 8.59399 3.92007H5.33398V3.40673C5.33398 2.26673 6.26731 1.3334 7.40731 1.3334H12.594C13.734 1.3334 14.6673 2.26673 14.6673 3.40673Z" stroke="#4F4F4F" stroke-opacity="0.9" stroke-width="1.0736" stroke-linecap="round" stroke-linejoin="round"/>
<path d="M4.66602 8.00006H7.33268" stroke="#4F4F4F" stroke-opacity="0.9" stroke-width="1.0736" stroke-linecap="round" stroke-linejoin="round"/>
<path d="M6 9.33338V6.66672" stroke="#4F4F4F" stroke-opacity="0.9" stroke-width="1.0736" stroke-linecap="round" stroke-linejoin="round"/>
</svg>